<?xml version="1.0" standalone="no"?>
<!DOCTYPE svg PUBLIC "-//W3C//DTD SVG 1.1//EN" "http://www.w3.org/Graphics/SVG/1.1/DTD/svg11.dtd" >
<svg>
<metadata>
Created by FontForge 20120731 at Wed Mar  9 23:32:41 2016
 By www-data
Copyright (c) 2014 by Daniel Hernandez &#38; Miguel Hernandez. All rights reserved.
</metadata>
<defs>
<font id="Texta-Black" horiz-adv-x="598" >
  <font-face 
    font-family="Texta Black"
    font-weight="900"
    font-stretch="normal"
    units-per-em="1000"
    panose-1="2 0 0 0 0 0 0 0 0 0"
    ascent="750"
    descent="-250"
    x-height="420"
    cap-height="600"
    bbox="-32 -192 979 822"
    underline-thickness="50"
    underline-position="-50"
    unicode-range="U+000D-25CA"
  />
<missing-glyph horiz-adv-x="564" 
 />
    <glyph glyph-name=".notdef" horiz-adv-x="564" 
 />
    <glyph glyph-name="A" unicode="A" 
d="M378 600l229 -600h-156l-37 108h-230l-37 -108h-156l229 600h158zM299 444l-76 -222h152z" />
    <glyph glyph-name="AE" unicode="&#xc6;" horiz-adv-x="902" 
d="M-18 0l409 600h478v-125h-311v-118h244v-114h-244v-118h311v-125h-456v115h-185l-74 -115h-172zM411 398l-107 -166h109v166h-2z" />
    <glyph glyph-name="Aacute" unicode="&#xc1;" 
d="M378 600l229 -600h-156l-37 108h-230l-37 -108h-156l229 600h158zM299 444l-76 -222h152zM465 767l-119 -132h-92l48 145z" />
    <glyph glyph-name="acute" unicode="&#xb4;" horiz-adv-x="279" 
d="M251 629l-119 -132h-92l48 145z" />
    <glyph glyph-name="Acircumflex" unicode="&#xc2;" 
d="M378 600l229 -600h-156l-37 108h-230l-37 -108h-156l229 600h158zM299 444l-76 -222h152zM342 635l-42 63l-42 -63h-95l83 142h110l82 -142h-96z" />
    <glyph glyph-name="circumflex" unicode="&#x2c6;" horiz-adv-x="371" 
d="M234 635l-42 63l-42 -63h-95l83 142h110l82 -142h-96z" />
    <glyph glyph-name="Adieresis" unicode="&#xc4;" 
d="M378 600l229 -600h-156l-37 108h-230l-37 -108h-156l229 600h158zM299 444l-76 -222h152zM141 702c0 36 32 68 66 68c36 0 68 -32 68 -68c0 -35 -32 -67 -68 -67c-34 0 -66 32 -66 67zM324 702c0 36 32 68 66 68c36 0 67 -32 67 -68c0 -35 -31 -67 -67 -67
c-34 0 -66 32 -66 67z" />
    <glyph glyph-name="dieresis" unicode="&#xa8;" horiz-adv-x="455" 
d="M68 702c0 36 32 68 66 68c36 0 68 -32 68 -68c0 -35 -32 -67 -68 -67c-34 0 -66 32 -66 67zM251 702c0 36 32 68 66 68c36 0 67 -32 67 -68c0 -35 -31 -67 -67 -67c-34 0 -66 32 -66 67z" />
    <glyph glyph-name="Agrave" unicode="&#xc0;" 
d="M378 600l229 -600h-156l-37 108h-230l-37 -108h-156l229 600h158zM299 444l-76 -222h152zM246 635l-96 136l159 24l33 -160h-96z" />
    <glyph glyph-name="grave" unicode="`" horiz-adv-x="279" 
d="M122 497l-96 136l159 24l33 -160h-96z" />
    <glyph glyph-name="Aring" unicode="&#xc5;" 
d="M378 600l229 -600h-156l-37 108h-230l-37 -108h-156l229 600h158zM299 444l-76 -222h152zM182 706c0 53 37 92 117 92s117 -39 117 -92c0 -52 -37 -91 -117 -91s-117 39 -117 91zM342 706c0 21 -15 33 -43 33c-27 0 -42 -12 -42 -33s15 -32 42 -32c28 0 43 11 43 32z" />
    <glyph glyph-name="ring" unicode="&#x2da;" horiz-adv-x="288" 
d="M27 706c0 53 37 92 117 92s117 -39 117 -92c0 -52 -37 -91 -117 -91s-117 39 -117 91zM187 706c0 21 -15 33 -43 33c-27 0 -42 -12 -42 -33s15 -32 42 -32c28 0 43 11 43 32z" />
    <glyph glyph-name="Atilde" unicode="&#xc3;" 
d="M378 600l229 -600h-156l-37 108h-230l-37 -108h-156l229 600h158zM299 444l-76 -222h152zM376 640c-60 0 -90 36 -123 36c-17 0 -24 -10 -28 -25l-4 -16l-101 9l6 37c10 62 46 102 108 102c60 0 90 -36 123 -36c17 0 24 10 28 25l4 16l101 -9l-6 -37
c-10 -62 -46 -102 -108 -102z" />
    <glyph glyph-name="tilde" unicode="&#x2dc;" horiz-adv-x="485" 
d="M312 640c-60 0 -90 36 -123 36c-17 0 -24 -10 -28 -25l-4 -16l-101 9l6 37c10 62 46 102 108 102c60 0 90 -36 123 -36c17 0 24 10 28 25l4 16l101 -9l-6 -37c-10 -62 -46 -102 -108 -102z" />
    <glyph glyph-name="B" unicode="B" horiz-adv-x="600" 
d="M567 179c0 -112 -80 -179 -222 -179h-283v600h279c142 0 210 -62 210 -164c0 -49 -27 -95 -71 -121v-8c56 -18 87 -67 87 -128zM352 249h-145v-124h139c39 0 65 29 65 61c0 30 -23 60 -59 63zM397 415c0 33 -23 60 -59 60h-131v-118h128c37 0 62 27 62 58z" />
    <glyph glyph-name="C" unicode="C" horiz-adv-x="552" 
d="M460 171l83 -111s-64 -74 -205 -74c-194 0 -309 142 -309 314s115 313 309 313c141 0 205 -73 205 -73l-83 -111s-40 45 -120 45c-94 0 -161 -70 -161 -174s67 -174 161 -174c80 0 120 45 120 45z" />
    <glyph glyph-name="CR" unicode="&#xd;" horiz-adv-x="105" 
 />
    <glyph glyph-name="Ccedilla" unicode="&#xc7;" horiz-adv-x="552" 
d="M288 -78l-22 25l20 43c-163 22 -257 154 -257 310c0 172 115 313 309 313c141 0 205 -73 205 -73l-83 -111s-40 45 -120 45c-94 0 -161 -70 -161 -174s67 -174 161 -174c80 0 120 45 120 45l83 -111s-61 -69 -193 -74l-6 -16c37 0 64 -25 64 -65c0 -46 -33 -77 -92 -77
c-63 0 -92 33 -92 33l31 49c20 -14 33 -21 56 -21c20 0 31 7 31 20c0 12 -11 19 -26 19c-17 0 -28 -6 -28 -6z" />
    <glyph glyph-name="cedilla" unicode="&#xb8;" horiz-adv-x="206" 
d="M68 -78l-22 25l27 56h64l-13 -33c37 0 64 -25 64 -65c0 -46 -33 -77 -92 -77c-63 0 -92 33 -92 33l31 49c20 -14 33 -21 56 -21c20 0 31 7 31 20c0 12 -11 19 -26 19c-17 0 -28 -6 -28 -6z" />
    <glyph glyph-name="D" unicode="D" horiz-adv-x="637" 
d="M608 300c0 -172 -122 -300 -315 -300h-231v600h231c193 0 315 -128 315 -300zM282 475h-75v-350h75c97 0 176 65 176 175c0 116 -79 175 -176 175z" />
    <glyph glyph-name="Delta" unicode="&#x2206;" horiz-adv-x="676" 
d="M25 0v24l301 576h24l302 -576v-24h-627zM442 125c-28 60 -51 113 -100 221h-9l-101 -221h210z" />
    <glyph glyph-name="E" unicode="E" horiz-adv-x="533" 
d="M451 361v-114h-244v-122h291v-125h-436v600h436v-125h-291v-114h244z" />
    <glyph glyph-name="Eacute" unicode="&#xc9;" horiz-adv-x="533" 
d="M451 361v-114h-244v-122h291v-125h-436v600h436v-125h-291v-114h244zM455 767l-119 -132h-92l48 145z" />
    <glyph glyph-name="Ecircumflex" unicode="&#xca;" horiz-adv-x="533" 
d="M451 361v-114h-244v-122h291v-125h-436v600h436v-125h-291v-114h244zM333 635l-42 63l-42 -63h-95l83 142h110l82 -142h-96z" />
    <glyph glyph-name="Edieresis" unicode="&#xcb;" horiz-adv-x="533" 
d="M451 361v-114h-244v-122h291v-125h-436v600h436v-125h-291v-114h244zM136 702c0 36 32 68 66 68c36 0 68 -32 68 -68c0 -35 -32 -67 -68 -67c-34 0 -66 32 -66 67zM319 702c0 36 32 68 66 68c36 0 67 -32 67 -68c0 -35 -31 -67 -67 -67c-34 0 -66 32 -66 67z" />
    <glyph glyph-name="Egrave" unicode="&#xc8;" horiz-adv-x="533" 
d="M451 361v-114h-244v-122h291v-125h-436v600h436v-125h-291v-114h244zM249 635l-96 136l159 24l33 -160h-96z" />
    <glyph glyph-name="Eth" unicode="&#xd0;" horiz-adv-x="639" 
d="M15 239v129h49v232h231c193 0 315 -128 315 -300s-122 -300 -315 -300h-231v239h-49zM284 475h-75v-107h113v-129h-113v-114h75c97 0 176 65 176 175c0 116 -79 175 -176 175z" />
    <glyph glyph-name="Euro" unicode="&#x20ac;" horiz-adv-x="600" 
d="M410 282v-96h-135c23 -37 59 -57 112 -57c61 0 99 44 99 44l83 -111s-59 -73 -184 -73c-148 0 -236 84 -270 197h-82v96h66v39h-66v96h83c34 112 122 196 269 196c125 0 184 -73 184 -73l-83 -111s-38 44 -99 44c-52 0 -88 -21 -110 -56h133v-96h-161v-39h161z" />
    <glyph glyph-name="F" unicode="F" horiz-adv-x="537" 
d="M451 360v-114h-244v-246h-145v600h440v-125h-295v-115h244z" />
    <glyph glyph-name="G" unicode="G" horiz-adv-x="641" 
d="M322 243v114h299v-87c0 -171 -111 -283 -286 -283c-192 0 -306 141 -306 313s116 313 308 313c153 0 217 -75 217 -75l-87 -112s-46 48 -132 48c-89 0 -156 -70 -156 -174s67 -174 156 -174c82 0 122 48 124 110v7h-137z" />
    <glyph glyph-name="H" unicode="H" horiz-adv-x="660" 
d="M598 600v-601h-145v244h-246v-244h-145v601h145v-243h246v243h145z" />
    <glyph glyph-name="I" unicode="I" horiz-adv-x="269" 
d="M207 600v-600h-145v600h145z" />
    <glyph glyph-name="Iacute" unicode="&#xcd;" horiz-adv-x="269" 
d="M207 600v-600h-145v600h145zM299 767l-119 -132h-92l48 145z" />
    <glyph glyph-name="Icircumflex" unicode="&#xce;" horiz-adv-x="269" 
d="M207 600v-600h-145v600h145zM178 635l-42 63l-42 -63h-95l83 142h110l82 -142h-96z" />
    <glyph glyph-name="Idieresis" unicode="&#xcf;" horiz-adv-x="269" 
d="M207 600v-600h-145v600h145zM-23 702c0 36 32 68 66 68c36 0 68 -32 68 -68c0 -35 -32 -67 -68 -67c-34 0 -66 32 -66 67zM160 702c0 36 32 68 66 68c36 0 67 -32 67 -68c0 -35 -31 -67 -67 -67c-34 0 -66 32 -66 67z" />
    <glyph glyph-name="Igrave" unicode="&#xcc;" horiz-adv-x="269" 
d="M207 600v-600h-145v600h145zM80 635l-96 136l159 24l33 -160h-96z" />
    <glyph glyph-name="J" unicode="J" horiz-adv-x="466" 
d="M9 44l70 117s35 -32 91 -32c68 0 95 34 95 111v360h145v-390c-1 -114 -68 -224 -236 -224c-114 0 -165 58 -165 58z" />
    <glyph glyph-name="K" unicode="K" horiz-adv-x="616" 
d="M207 600v-251l227 251h177v-13l-221 -244l221 -329v-14h-164l-156 234l-84 -94v-140h-145v600h145z" />
    <glyph glyph-name="L" unicode="L" horiz-adv-x="502" 
d="M475 0h-413v600h145v-475h268v-125z" />
    <glyph glyph-name="Lslash" unicode="&#x141;" horiz-adv-x="509" 
d="M13 183v164l56 33v220h145v-132l95 57v-163l-95 -58v-179h268v-125h-413v217z" />
    <glyph glyph-name="M" unicode="M" horiz-adv-x="730" 
d="M525 0v331l-129 -172h-61l-130 173v-332h-144l1 600h117l186 -257l186 257h117l1 -600h-144z" />
    <glyph glyph-name="N" unicode="N" horiz-adv-x="668" 
d="M606 600v-600h-112l-288 350v-350h-144v600h112l288 -344v344h144z" />
    <glyph glyph-name="NUL" horiz-adv-x="0" 
 />
    <glyph glyph-name="NUL" horiz-adv-x="0" 
 />
    <glyph glyph-name="Ntilde" unicode="&#xd1;" horiz-adv-x="668" 
d="M606 600v-600h-112l-288 350v-350h-144v600h112l288 -344v344h144zM410 640c-60 0 -90 36 -123 36c-17 0 -24 -10 -28 -25l-4 -16l-101 9l6 37c10 62 46 102 108 102c60 0 90 -36 123 -36c17 0 24 10 28 25l4 16l101 -9l-6 -37c-10 -62 -46 -102 -108 -102z" />
    <glyph glyph-name="O" unicode="O" horiz-adv-x="672" 
d="M335 -14c-181 0 -307 142 -307 314s126 313 307 313c183 0 309 -141 309 -313s-126 -314 -309 -314zM335 127c89 0 159 69 159 173s-70 173 -159 173c-87 0 -157 -69 -157 -173s70 -173 157 -173z" />
    <glyph glyph-name="OE" unicode="&#x152;" horiz-adv-x="1013" 
d="M932 361v-114h-244v-122h291v-125h-436v64c-53 -49 -125 -78 -208 -78c-181 0 -307 142 -307 314s126 313 307 313c83 0 155 -30 208 -78v65h436v-125h-291v-114h244zM335 127c89 0 159 69 159 173s-70 173 -159 173c-87 0 -157 -69 -157 -173s70 -173 157 -173z" />
    <glyph glyph-name="Oacute" unicode="&#xd3;" horiz-adv-x="672" 
d="M335 -14c-181 0 -307 142 -307 314s126 313 307 313c183 0 309 -141 309 -313s-126 -314 -309 -314zM335 127c89 0 159 69 159 173s-70 173 -159 173c-87 0 -157 -69 -157 -173s70 -173 157 -173zM496 767l-119 -132h-92l48 145z" />
    <glyph glyph-name="Ocircumflex" unicode="&#xd4;" horiz-adv-x="672" 
d="M335 -14c-181 0 -307 142 -307 314s126 313 307 313c183 0 309 -141 309 -313s-126 -314 -309 -314zM335 127c89 0 159 69 159 173s-70 173 -159 173c-87 0 -157 -69 -157 -173s70 -173 157 -173zM379 635l-42 63l-42 -63h-95l83 142h110l82 -142h-96z" />
    <glyph glyph-name="Odieresis" unicode="&#xd6;" horiz-adv-x="672" 
d="M335 -14c-181 0 -307 142 -307 314s126 313 307 313c183 0 309 -141 309 -313s-126 -314 -309 -314zM335 127c89 0 159 69 159 173s-70 173 -159 173c-87 0 -157 -69 -157 -173s70 -173 157 -173zM178 702c0 36 32 68 66 68c36 0 68 -32 68 -68c0 -35 -32 -67 -68 -67
c-34 0 -66 32 -66 67zM361 702c0 36 32 68 66 68c36 0 67 -32 67 -68c0 -35 -31 -67 -67 -67c-34 0 -66 32 -66 67z" />
    <glyph glyph-name="Ograve" unicode="&#xd2;" horiz-adv-x="672" 
d="M335 -14c-181 0 -307 142 -307 314s126 313 307 313c183 0 309 -141 309 -313s-126 -314 -309 -314zM335 127c89 0 159 69 159 173s-70 173 -159 173c-87 0 -157 -69 -157 -173s70 -173 157 -173zM284 635l-96 136l159 24l33 -160h-96z" />
    <glyph glyph-name="Omega" unicode="&#x2126;" horiz-adv-x="726" 
d="M45 0v125h94c-63 49 -94 122 -94 196c0 159 117 292 318 292s318 -133 318 -292c0 -74 -31 -147 -95 -196h95v-125h-282v130c79 15 136 86 136 176c0 99 -75 167 -172 167s-172 -68 -172 -167c0 -90 57 -161 136 -176v-130h-282z" />
    <glyph glyph-name="Oslash" unicode="&#xd8;" horiz-adv-x="692" 
d="M346 -14c-69 0 -129 20 -178 55l-40 -41h-147l113 116c-35 52 -55 116 -55 184c0 172 126 313 307 313c68 0 129 -20 178 -54l39 41h147l-112 -115c36 -52 57 -116 57 -185c0 -172 -126 -314 -309 -314zM346 127c89 0 159 69 159 173c0 27 -5 52 -14 74l-221 -228
c22 -13 48 -19 76 -19zM189 300c0 -27 5 -51 13 -72l219 226c-22 12 -48 19 -75 19c-87 0 -157 -69 -157 -173z" />
    <glyph glyph-name="Otilde" unicode="&#xd5;" horiz-adv-x="672" 
d="M335 -14c-181 0 -307 142 -307 314s126 313 307 313c183 0 309 -141 309 -313s-126 -314 -309 -314zM335 127c89 0 159 69 159 173s-70 173 -159 173c-87 0 -157 -69 -157 -173s70 -173 157 -173zM409 640c-60 0 -90 36 -123 36c-17 0 -24 -10 -28 -25l-4 -16l-101 9
l6 37c10 62 46 102 108 102c60 0 90 -36 123 -36c17 0 24 10 28 25l4 16l101 -9l-6 -37c-10 -62 -46 -102 -108 -102z" />
    <glyph glyph-name="P" unicode="P" horiz-adv-x="578" 
d="M327 600c137 0 231 -85 231 -202c0 -123 -93 -201 -231 -201h-120v-197h-145v600h265zM408 398c0 52 -38 77 -91 77h-110v-155h111c51 0 90 27 90 78z" />
    <glyph glyph-name="Q" unicode="Q" horiz-adv-x="672" 
d="M335 -14c-181 0 -307 142 -307 314s126 313 307 313c183 0 309 -141 309 -313c0 -118 -59 -221 -154 -275l64 -124h-159l-39 86c-7 0 -14 -1 -21 -1zM335 127c89 0 159 69 159 173s-70 173 -159 173c-87 0 -157 -69 -157 -173s70 -173 157 -173z" />
    <glyph glyph-name="R" unicode="R" horiz-adv-x="600" 
d="M62 600h265c137 0 231 -85 231 -202c0 -83 -43 -146 -112 -178v-11l135 -199v-10h-165l-125 197h-84v-197h-145v600zM408 398c0 52 -38 77 -91 77h-110v-155h111c51 0 90 27 90 78z" />
    <glyph glyph-name="S" unicode="S" horiz-adv-x="533" 
d="M24 67l79 111s86 -58 167 -58c45 0 66 20 66 50c0 31 -19 47 -103 72c-126 37 -198 86 -198 185c0 109 74 186 232 186c163 0 226 -64 226 -64l-78 -118s-63 50 -148 50c-49 0 -65 -19 -65 -44c0 -30 26 -42 95 -62c133 -37 209 -89 209 -189c0 -109 -73 -199 -231 -199
c-166 0 -251 80 -251 80z" />
    <glyph glyph-name="Scaron" unicode="&#x160;" horiz-adv-x="533" 
d="M24 67l79 111s86 -58 167 -58c45 0 66 20 66 50c0 31 -19 47 -103 72c-126 37 -198 86 -198 185c0 109 74 186 232 186c163 0 226 -64 226 -64l-78 -118s-63 50 -148 50c-49 0 -65 -19 -65 -44c0 -30 26 -42 95 -62c133 -37 209 -89 209 -189c0 -109 -73 -199 -231 -199
c-166 0 -251 80 -251 80zM225 777l42 -63l42 63h95l-64 -109h-147l-64 109h96z" />
    <glyph glyph-name="caron" unicode="&#x2c7;" horiz-adv-x="325" 
d="M118 777l42 -63l42 63h95l-64 -109h-147l-64 109h96z" />
    <glyph glyph-name="T" unicode="T" horiz-adv-x="529" 
d="M23 475v125h483v-125h-169v-475h-145v475h-169z" />
    <glyph glyph-name="Thorn" unicode="&#xde;" horiz-adv-x="591" 
d="M207 600v-88h130c146 0 238 -78 238 -209c0 -141 -105 -216 -248 -216h-120v-87h-145v600h145zM425 297c0 58 -43 90 -104 90h-114v-180h115c61 0 103 30 103 90z" />
    <glyph glyph-name="U" unicode="U" horiz-adv-x="640" 
d="M320 -14c-162 0 -266 118 -266 273v341h145v-341c0 -75 40 -132 121 -132c84 0 121 57 121 132v341h145v-341c0 -155 -100 -273 -266 -273z" />
    <glyph glyph-name="Uacute" unicode="&#xda;" horiz-adv-x="640" 
d="M320 -14c-162 0 -266 118 -266 273v341h145v-341c0 -75 40 -132 121 -132c84 0 121 57 121 132v341h145v-341c0 -155 -100 -273 -266 -273zM481 767l-119 -132h-92l48 145z" />
    <glyph glyph-name="Ucircumflex" unicode="&#xdb;" horiz-adv-x="640" 
d="M320 -14c-162 0 -266 118 -266 273v341h145v-341c0 -75 40 -132 121 -132c84 0 121 57 121 132v341h145v-341c0 -155 -100 -273 -266 -273zM364 635l-42 63l-42 -63h-95l83 142h110l82 -142h-96z" />
    <glyph glyph-name="Udieresis" unicode="&#xdc;" horiz-adv-x="640" 
d="M320 -14c-162 0 -266 118 -266 273v341h145v-341c0 -75 40 -132 121 -132c84 0 121 57 121 132v341h145v-341c0 -155 -100 -273 -266 -273zM164 702c0 36 32 68 66 68c36 0 68 -32 68 -68c0 -35 -32 -67 -68 -67c-34 0 -66 32 -66 67zM347 702c0 36 32 68 66 68
c36 0 67 -32 67 -68c0 -35 -31 -67 -67 -67c-34 0 -66 32 -66 67z" />
    <glyph glyph-name="Ugrave" unicode="&#xd9;" horiz-adv-x="640" 
d="M320 -14c-162 0 -266 118 -266 273v341h145v-341c0 -75 40 -132 121 -132c84 0 121 57 121 132v341h145v-341c0 -155 -100 -273 -266 -273zM268 635l-96 136l159 24l33 -160h-96z" />
    <glyph glyph-name="V" unicode="V" 
d="M220 0l-229 600h156l152 -445l152 445h156l-229 -600h-158z" />
    <glyph glyph-name="W" unicode="W" horiz-adv-x="799" 
d="M502 0l-105 337l-100 -337h-112l-175 600h159l76 -318l98 318h108l100 -320l78 320h160l-175 -600h-112z" />
    <glyph glyph-name="X" unicode="X" horiz-adv-x="590" 
d="M577 600l-172 -293l176 -307h-176l-85 177l-25 53l-24 -53l-85 -177h-175l173 307l-171 293h176l82 -167l24 -56l25 56l82 167h175z" />
    <glyph glyph-name="Y" unicode="Y" horiz-adv-x="548" 
d="M300 418l101 182h156l-210 -367v-233h-145v231l-211 369h156l101 -182l26 -61z" />
    <glyph glyph-name="Yacute" unicode="&#xdd;" horiz-adv-x="548" 
d="M300 418l101 182h156l-210 -367v-233h-145v231l-211 369h156l101 -182l26 -61zM438 800l-119 -132h-92l48 145z" />
    <glyph glyph-name="Ydieresis" unicode="&#x178;" horiz-adv-x="548" 
d="M300 418l101 182h156l-210 -367v-233h-145v231l-211 369h156l101 -182l26 -61zM119 702c0 36 32 68 66 68c36 0 68 -32 68 -68c0 -35 -32 -67 -68 -67c-34 0 -66 32 -66 67zM302 702c0 36 32 68 66 68c36 0 67 -32 67 -68c0 -35 -31 -67 -67 -67c-34 0 -66 32 -66 67z
" />
    <glyph glyph-name="Z" unicode="Z" horiz-adv-x="554" 
d="M30 0v109l296 366h-286v125h478v-114l-291 -361h292v-125h-489z" />
    <glyph glyph-name="Zcaron" unicode="&#x17d;" horiz-adv-x="554" 
d="M30 0v109l296 366h-286v125h478v-114l-291 -361h292v-125h-489zM230 777l42 -63l42 63h95l-64 -109h-147l-64 109h96z" />
    <glyph glyph-name="a" unicode="a" horiz-adv-x="470" 
d="M426 259v-259h-98l-20 51h-4c-21 -36 -62 -61 -132 -61c-94 0 -150 56 -150 132c0 88 63 139 191 139c31 0 56 -4 75 -9v13c0 41 -34 53 -91 53c-58 0 -105 -28 -105 -28l-44 102s61 38 180 38c126 0 198 -69 198 -171zM288 148v31c-8 3 -24 9 -57 9
c-47 0 -75 -20 -75 -54c0 -31 25 -50 58 -50c40 0 74 25 74 64z" />
    <glyph glyph-name="aacute" unicode="&#xe1;" horiz-adv-x="470" 
d="M426 259v-259h-98l-20 51h-4c-21 -36 -62 -61 -132 -61c-94 0 -150 56 -150 132c0 88 63 139 191 139c31 0 56 -4 75 -9v13c0 41 -34 53 -91 53c-58 0 -105 -28 -105 -28l-44 102s61 38 180 38c126 0 198 -69 198 -171zM288 148v31c-8 3 -24 9 -57 9
c-47 0 -75 -20 -75 -54c0 -31 25 -50 58 -50c40 0 74 25 74 64zM382 629l-119 -132h-92l48 145z" />
    <glyph glyph-name="acircumflex" unicode="&#xe2;" horiz-adv-x="470" 
d="M426 259v-259h-98l-20 51h-4c-21 -36 -62 -61 -132 -61c-94 0 -150 56 -150 132c0 88 63 139 191 139c31 0 56 -4 75 -9v13c0 41 -34 53 -91 53c-58 0 -105 -28 -105 -28l-44 102s61 38 180 38c126 0 198 -69 198 -171zM288 148v31c-8 3 -24 9 -57 9
c-47 0 -75 -20 -75 -54c0 -31 25 -50 58 -50c40 0 74 25 74 64zM261 497l-42 63l-42 -63h-95l83 142h110l82 -142h-96z" />
    <glyph glyph-name="adieresis" unicode="&#xe4;" horiz-adv-x="470" 
d="M426 259v-259h-98l-20 51h-4c-21 -36 -62 -61 -132 -61c-94 0 -150 56 -150 132c0 88 63 139 191 139c31 0 56 -4 75 -9v13c0 41 -34 53 -91 53c-58 0 -105 -28 -105 -28l-44 102s61 38 180 38c126 0 198 -69 198 -171zM288 148v31c-8 3 -24 9 -57 9
c-47 0 -75 -20 -75 -54c0 -31 25 -50 58 -50c40 0 74 25 74 64zM63 531c0 36 32 68 66 68c36 0 68 -32 68 -68c0 -35 -32 -67 -68 -67c-34 0 -66 32 -66 67zM246 531c0 36 32 68 66 68c36 0 67 -32 67 -68c0 -35 -31 -67 -67 -67c-34 0 -66 32 -66 67z" />
    <glyph glyph-name="ae" unicode="&#xe6;" horiz-adv-x="726" 
d="M633 135l49 -93s-53 -52 -162 -52c-66 0 -119 19 -158 52c-37 -32 -92 -52 -168 -52c-119 0 -175 58 -175 127c0 85 52 136 188 136c33 0 60 -5 80 -9v15c0 41 -36 61 -90 61c-55 0 -105 -34 -105 -34l-45 106s69 38 169 38c66 0 115 -17 150 -47c36 29 83 47 137 47
c123 0 200 -79 200 -209c0 -15 -1 -40 -1 -40h-274c10 -56 47 -78 102 -78c61 0 103 32 103 32zM215 84c50 0 72 34 72 76v11c-11 3 -33 8 -67 8c-42 0 -64 -18 -64 -49c0 -29 19 -46 59 -46zM499 326c-34 0 -60 -22 -69 -67h135c-2 40 -25 67 -66 67z" />
    <glyph glyph-name="agrave" unicode="&#xe0;" horiz-adv-x="470" 
d="M426 259v-259h-98l-20 51h-4c-21 -36 -62 -61 -132 -61c-94 0 -150 56 -150 132c0 88 63 139 191 139c31 0 56 -4 75 -9v13c0 41 -34 53 -91 53c-58 0 -105 -28 -105 -28l-44 102s61 38 180 38c126 0 198 -69 198 -171zM288 148v31c-8 3 -24 9 -57 9
c-47 0 -75 -20 -75 -54c0 -31 25 -50 58 -50c40 0 74 25 74 64zM179 497l-96 136l159 24l33 -160h-96z" />
    <glyph glyph-name="ampersand" unicode="&#x26;" horiz-adv-x="661" 
d="M484 333l138 -31c-11 -68 -40 -131 -80 -182l124 -120h-196l-31 31c-46 -26 -98 -41 -152 -41c-176 0 -248 76 -248 183c0 81 52 125 112 157l-8 9c-31 33 -53 72 -53 116c0 88 71 158 197 158c122 0 197 -65 197 -153c0 -89 -58 -133 -122 -165l81 -79
c21 35 35 76 41 117zM290 113c20 0 40 4 59 12l-108 112c-25 -17 -42 -36 -42 -62c0 -34 30 -62 91 -62zM232 445c0 -19 13 -36 41 -64c40 17 70 35 70 63s-17 51 -55 51c-40 0 -56 -23 -56 -50z" />
    <glyph glyph-name="approxequal" unicode="&#x2248;" horiz-adv-x="564" 
d="M370 145c-74 0 -112 35 -152 35c-21 0 -30 -10 -35 -24l-5 -16l-125 9l9 52c13 61 57 100 134 100c74 0 112 -35 152 -35c21 0 30 10 35 24l5 16l125 -9l-9 -52c-13 -61 -57 -100 -134 -100zM370 345c-74 0 -112 35 -152 35c-21 0 -30 -10 -35 -24l-5 -16l-125 9l9 52
c13 61 57 100 134 100c74 0 112 -35 152 -35c21 0 30 10 35 24l5 16l125 -9l-9 -52c-13 -61 -57 -100 -134 -100z" />
    <glyph glyph-name="aring" unicode="&#xe5;" horiz-adv-x="470" 
d="M426 259v-259h-98l-20 51h-4c-21 -36 -62 -61 -132 -61c-94 0 -150 56 -150 132c0 88 63 139 191 139c31 0 56 -4 75 -9v13c0 41 -34 53 -91 53c-58 0 -105 -28 -105 -28l-44 102s61 38 180 38c126 0 198 -69 198 -171zM288 148v31c-8 3 -24 9 -57 9
c-47 0 -75 -20 -75 -54c0 -31 25 -50 58 -50c40 0 74 25 74 64zM104 584c0 53 37 92 117 92s117 -39 117 -92c0 -52 -37 -91 -117 -91s-117 39 -117 91zM264 584c0 21 -15 33 -43 33c-27 0 -42 -12 -42 -33s15 -32 42 -32c28 0 43 11 43 32z" />
    <glyph glyph-name="asciicircum" unicode="^" horiz-adv-x="385" 
d="M241 497l-51 90l-51 -90h-104l119 196h73l123 -196h-109z" />
    <glyph glyph-name="asciitilde" unicode="~" horiz-adv-x="470" 
d="M306 339c43 0 72 24 72 24l46 -89s-39 -43 -115 -43c-55 0 -89 32 -147 32c-44 0 -73 -24 -73 -24l-44 88s41 44 114 44c55 0 89 -32 147 -32z" />
    <glyph glyph-name="asterisk" unicode="*" horiz-adv-x="386" 
d="M64 442l82 88l-115 20l27 85l107 -53l-16 118h88l-18 -119l108 54l27 -85l-115 -20l83 -88l-73 -51l-56 105l-57 -105z" />
    <glyph glyph-name="at" unicode="@" horiz-adv-x="991" 
d="M728 51c-134 0 -153 98 -153 98h-5c-14 -28 -55 -92 -146 -92c-103 0 -177 70 -177 185c0 157 99 255 218 255c67 0 103 -33 120 -74l11 64h123l-25 -221c-2 -16 -3 -27 -3 -47c0 -51 36 -84 86 -84c70 0 112 68 112 180c0 175 -133 373 -384 373
c-244 0 -415 -191 -415 -410c0 -228 185 -413 411 -413c126 0 211 57 211 57l24 -51s-84 -62 -235 -62c-278 0 -470 221 -470 467c0 253 191 469 474 469c259 0 451 -194 451 -428c0 -146 -78 -266 -228 -266zM471 196c53 0 85 45 85 97c0 41 -20 67 -66 67
c-49 0 -85 -38 -85 -95c0 -41 25 -69 66 -69z" />
    <glyph glyph-name="atilde" unicode="&#xe3;" horiz-adv-x="470" 
d="M426 259v-259h-98l-20 51h-4c-21 -36 -62 -61 -132 -61c-94 0 -150 56 -150 132c0 88 63 139 191 139c31 0 56 -4 75 -9v13c0 41 -34 53 -91 53c-58 0 -105 -28 -105 -28l-44 102s61 38 180 38c126 0 198 -69 198 -171zM288 148v31c-8 3 -24 9 -57 9
c-47 0 -75 -20 -75 -54c0 -31 25 -50 58 -50c40 0 74 25 74 64zM291 471c-60 0 -90 36 -123 36c-17 0 -24 -10 -28 -25l-4 -16l-101 9l6 37c10 62 46 102 108 102c60 0 90 -36 123 -36c17 0 24 10 28 25l4 16l101 -9l-6 -37c-10 -62 -46 -102 -108 -102z" />
    <glyph glyph-name="b" unicode="b" horiz-adv-x="518" 
d="M48 0v605h144v-225h6s23 50 105 50c108 0 189 -90 189 -221c0 -135 -83 -219 -194 -219c-96 0 -127 66 -127 66h-6l-22 -56h-95zM185 211c0 -62 31 -103 81 -103c49 0 81 43 81 103s-32 101 -81 101c-50 0 -81 -39 -81 -101z" />
    <glyph glyph-name="backslash" unicode="\" horiz-adv-x="407" 
d="M240 -128l-216 926h141l218 -926h-143z" />
    <glyph glyph-name="bar" unicode="|" horiz-adv-x="233" 
d="M182 687v-815h-131v815h131z" />
    <glyph glyph-name="braceleft" unicode="{" horiz-adv-x="319" 
d="M16 339h23c37 0 52 19 52 67v145c0 98 54 159 183 164l20 -119c-41 -7 -58 -12 -58 -52v-160c0 -48 -24 -82 -63 -94v-9c39 -11 63 -46 63 -93v-159c0 -40 17 -45 58 -52l-20 -119c-129 5 -183 66 -183 164v144c0 48 -15 67 -52 67h-23v106z" />
    <glyph glyph-name="braceright" unicode="}" horiz-adv-x="319" 
d="M280 339h23v-106h-23c-37 0 -52 -19 -52 -67v-144c0 -98 -54 -159 -183 -164l-20 119c41 7 58 12 58 52v159c0 47 24 82 63 93v9c-39 12 -63 46 -63 94v160c0 40 -17 45 -58 52l20 119c129 -5 183 -66 183 -164v-145c0 -48 15 -67 52 -67z" />
    <glyph glyph-name="bracketleft" unicode="[" horiz-adv-x="335" 
d="M51 -130v830h266v-116h-130v-598h130v-116h-266z" />
    <glyph glyph-name="bracketright" unicode="]" horiz-adv-x="335" 
d="M18 -130v116h130v598h-130v116h266v-830h-266z" />
    <glyph glyph-name="breve" unicode="&#x2d8;" horiz-adv-x="396" 
d="M255 822h113c0 -79 -46 -163 -167 -163s-169 84 -169 163h112c0 -48 22 -67 56 -67s55 22 55 67z" />
    <glyph glyph-name="brokenbar" unicode="&#xa6;" horiz-adv-x="243" 
d="M187 330h-131v343h131v-343zM187 -153h-131v342h131v-342z" />
    <glyph glyph-name="bullet" unicode="&#x2022;" horiz-adv-x="331" 
d="M165 327c57 0 104 -47 104 -104s-47 -103 -104 -103s-103 46 -103 103s46 104 103 104z" />
    <glyph glyph-name="c" unicode="c" horiz-adv-x="406" 
d="M253 -10c-139 0 -228 96 -228 220c0 125 89 220 228 220c87 0 133 -38 133 -38l-36 -103s-38 23 -84 23c-57 0 -96 -40 -96 -102s39 -102 96 -102c46 0 84 23 84 23l36 -101s-46 -40 -133 -40z" />
    <glyph glyph-name="ccedilla" unicode="&#xe7;" horiz-adv-x="406" 
d="M187 -78l-22 25l24 51c-102 24 -164 108 -164 212c0 125 89 220 228 220c87 0 133 -38 133 -38l-36 -103s-38 23 -84 23c-57 0 -96 -40 -96 -102s39 -102 96 -102c46 0 84 23 84 23l36 -101s-46 -40 -133 -40h-2l-8 -20c37 0 64 -25 64 -65c0 -46 -33 -77 -92 -77
c-63 0 -92 33 -92 33l31 49c20 -14 33 -21 56 -21c20 0 31 7 31 20c0 12 -11 19 -26 19c-17 0 -28 -6 -28 -6z" />
    <glyph glyph-name="cent" unicode="&#xa2;" horiz-adv-x="428" 
d="M191 0l11 84c-105 23 -170 108 -170 214c0 124 88 219 227 220l11 82h51l-12 -86c55 -9 84 -31 84 -31l-36 -106s-27 16 -63 21l-26 -202h5c46 0 84 23 84 23l36 -104s-46 -37 -133 -37h-8l-10 -78h-51zM177 298c0 -40 15 -70 41 -87l25 185c-41 -12 -66 -48 -66 -98z
" />
    <glyph glyph-name="colon" unicode=":" horiz-adv-x="247" 
d="M43 70c0 45 35 81 80 81s81 -36 81 -81s-36 -80 -81 -80s-80 35 -80 80zM43 346c0 45 35 81 80 81s81 -36 81 -81s-36 -80 -81 -80s-80 35 -80 80z" />
    <glyph glyph-name="comma" unicode="," horiz-adv-x="230" 
d="M29 -49c36 8 56 20 63 42c-34 8 -59 39 -59 77c0 45 35 81 80 81s81 -36 81 -81v-5c0 -83 -46 -168 -144 -188z" />
    <glyph glyph-name="copyright" unicode="&#xa9;" horiz-adv-x="669" 
d="M335 605c187 0 299 -138 299 -306c0 -167 -112 -305 -299 -305c-186 0 -300 138 -300 305c0 168 114 306 300 306zM335 563c-159 0 -255 -118 -255 -264c0 -144 96 -263 255 -263s256 119 256 263c0 146 -97 264 -256 264zM453 423l-49 -70s-20 18 -54 18
c-43 0 -71 -29 -71 -71c0 -43 28 -71 71 -71c34 0 54 18 54 18l49 -70s-34 -37 -109 -37c-104 0 -165 72 -165 160s61 161 165 161c76 0 109 -38 109 -38z" />
    <glyph glyph-name="d" unicode="d" horiz-adv-x="519" 
d="M320 382h6v223h144v-605h-94l-23 54h-6s-31 -64 -126 -64c-112 0 -195 84 -195 219c0 131 81 221 190 221c80 0 104 -48 104 -48zM334 211c0 62 -31 101 -82 101c-49 0 -81 -41 -81 -101s32 -103 81 -103c51 0 82 41 82 103z" />
    <glyph glyph-name="dagger" unicode="&#x2020;" horiz-adv-x="441" 
d="M31 390v116h132v129h118v-129h129v-116h-129l-10 -243h-98l-10 243h-132z" />
    <glyph glyph-name="daggerdbl" unicode="&#x2021;" horiz-adv-x="468" 
d="M48 423v116h132v129h118v-129h129v-116h-129l-6 -89l6 -89h129v-116h-129v-129h-118v129h-132v116h132l6 89l-6 89h-132z" />
    <glyph glyph-name="degree" unicode="&#xb0;" horiz-adv-x="282" 
d="M141 673c71 0 118 -48 118 -108s-47 -108 -118 -108s-118 48 -118 108s47 108 118 108zM141 604c-25 0 -39 -16 -39 -39c0 -21 14 -37 39 -37s40 16 40 37c0 23 -15 39 -40 39z" />
    <glyph glyph-name="divide" unicode="&#xf7;" horiz-adv-x="483" 
d="M157 113c0 47 37 85 84 85s85 -38 85 -85s-38 -84 -85 -84s-84 37 -84 84zM157 484c0 47 37 85 84 85s85 -38 85 -85s-38 -84 -85 -84s-84 37 -84 84zM32 238v116h419v-116h-419z" />
    <glyph glyph-name="dollar" unicode="$" horiz-adv-x="541" 
d="M29 67l79 111s66 -44 136 -56v118c-2 0 -4 1 -6 2c-126 37 -198 86 -198 185c0 102 65 176 204 185v104h59v-104c140 -8 195 -63 195 -63l-78 -118s-49 38 -117 48v-105c132 -37 208 -89 208 -188c0 -104 -66 -190 -208 -198v-95h-59v96c-143 10 -215 78 -215 78z
M341 170c0 20 -9 34 -38 48v-95c26 7 38 24 38 47zM207 437c0 -20 10 -32 37 -43v84c-28 -6 -37 -22 -37 -41z" />
    <glyph glyph-name="dotaccent" unicode="&#x2d9;" horiz-adv-x="331" 
d="M166 550c-45 0 -80 35 -80 80s35 81 80 81s81 -36 81 -81s-36 -80 -81 -80z" />
    <glyph glyph-name="dotlessi" unicode="&#x131;" horiz-adv-x="242" 
d="M49 0v420h144v-420h-144z" />
    <glyph glyph-name="e" unicode="e" horiz-adv-x="461" 
d="M369 132l49 -93s-53 -52 -162 -52c-146 0 -231 99 -231 223c0 126 88 220 214 220c123 0 200 -79 200 -209c0 -15 -1 -40 -1 -40h-274c8 -57 42 -81 102 -81c61 0 103 32 103 32zM235 326c-34 0 -60 -22 -69 -67h135c-2 40 -25 67 -66 67z" />
    <glyph glyph-name="eacute" unicode="&#xe9;" horiz-adv-x="461" 
d="M406 629l-119 -132h-92l48 145zM369 132l49 -93s-53 -52 -162 -52c-146 0 -231 99 -231 223c0 126 88 220 214 220c123 0 200 -79 200 -209c0 -15 -1 -40 -1 -40h-274c8 -57 42 -81 102 -81c61 0 103 32 103 32zM235 326c-34 0 -60 -22 -69 -67h135c-2 40 -25 67 -66 67z
" />
    <glyph glyph-name="ecircumflex" unicode="&#xea;" horiz-adv-x="461" 
d="M280 497l-42 63l-42 -63h-95l83 142h110l82 -142h-96zM369 132l49 -93s-53 -52 -162 -52c-146 0 -231 99 -231 223c0 126 88 220 214 220c123 0 200 -79 200 -209c0 -15 -1 -40 -1 -40h-274c8 -57 42 -81 102 -81c61 0 103 32 103 32zM235 326c-34 0 -60 -22 -69 -67h135
c-2 40 -25 67 -66 67z" />
    <glyph glyph-name="edieresis" unicode="&#xeb;" horiz-adv-x="461" 
d="M369 132l49 -93s-53 -52 -162 -52c-146 0 -231 99 -231 223c0 126 88 220 214 220c123 0 200 -79 200 -209c0 -15 -1 -40 -1 -40h-274c8 -57 42 -81 102 -81c61 0 103 32 103 32zM235 326c-34 0 -60 -22 -69 -67h135c-2 40 -25 67 -66 67zM80 531c0 36 32 68 66 68
c36 0 68 -32 68 -68c0 -35 -32 -67 -68 -67c-34 0 -66 32 -66 67zM263 531c0 36 32 68 66 68c36 0 67 -32 67 -68c0 -35 -31 -67 -67 -67c-34 0 -66 32 -66 67z" />
    <glyph glyph-name="egrave" unicode="&#xe8;" horiz-adv-x="461" 
d="M369 132l49 -93s-53 -52 -162 -52c-146 0 -231 99 -231 223c0 126 88 220 214 220c123 0 200 -79 200 -209c0 -15 -1 -40 -1 -40h-274c8 -57 42 -81 102 -81c61 0 103 32 103 32zM235 326c-34 0 -60 -22 -69 -67h135c-2 40 -25 67 -66 67zM173 497l-96 136l159 24
l33 -160h-96z" />
    <glyph glyph-name="eight" unicode="8" horiz-adv-x="556" 
d="M278 -13c-154 0 -241 84 -241 191c0 59 25 106 72 136c-37 32 -55 75 -55 123c0 95 70 176 224 176c153 0 224 -81 224 -176c0 -48 -18 -91 -56 -123c48 -30 73 -77 73 -136c0 -107 -87 -191 -241 -191zM364 185c0 41 -34 75 -86 75c-51 0 -85 -34 -85 -75
c0 -40 34 -75 85 -75c52 0 86 35 86 75zM278 359c43 0 76 29 76 64c0 36 -33 66 -76 66c-42 0 -75 -30 -75 -66c0 -35 33 -64 75 -64z" />
    <glyph glyph-name="ellipsis" unicode="&#x2026;" horiz-adv-x="771" 
d="M35 76c0 47 37 85 84 85s85 -38 85 -85s-38 -84 -85 -84s-84 37 -84 84zM301 76c0 47 37 85 84 85s85 -38 85 -85s-38 -84 -85 -84s-84 37 -84 84zM567 76c0 47 37 85 84 85s85 -38 85 -85s-38 -84 -85 -84s-84 37 -84 84z" />
    <glyph glyph-name="emdash" unicode="&#x2014;" horiz-adv-x="700" 
d="M56 229v116h588v-116h-588z" />
    <glyph glyph-name="endash" unicode="&#x2013;" horiz-adv-x="447" 
d="M56 229v116h335v-116h-335z" />
    <glyph glyph-name="equal" unicode="=" horiz-adv-x="446" 
d="M51 330v116h344v-116h-344zM51 140v116h344v-116h-344z" />
    <glyph glyph-name="eth" unicode="&#xf0;" horiz-adv-x="510" 
d="M255 -11c-134 0 -230 83 -230 219c0 129 95 220 230 220h8v4s-17 21 -32 47l-20 34l-95 -58l-45 77l96 59l-71 126v11h138l42 -71l102 62l45 -77l-102 -62l102 -174c40 -73 60 -119 62 -190v-8c0 -136 -93 -219 -230 -219zM340 210c0 62 -33 101 -85 101
s-85 -43 -85 -101c0 -60 34 -104 85 -104c53 0 85 44 85 104z" />
    <glyph glyph-name="partialdiff" unicode="&#x2202;" horiz-adv-x="512" 
d="M255 -11c-134 0 -230 83 -230 219c0 129 95 220 230 220h8v4s-17 21 -32 47l-135 238v11h138l189 -322c40 -73 60 -119 62 -190v-8c0 -136 -93 -219 -230 -219zM340 210c0 62 -33 101 -85 101s-85 -43 -85 -101c0 -60 34 -104 85 -104c53 0 85 44 85 104z" />
    <glyph glyph-name="exclam" unicode="!" horiz-adv-x="245" 
d="M204 600l-35 -386h-94l-35 386h164zM38 76c0 47 37 85 84 85s85 -38 85 -85s-38 -84 -85 -84s-84 37 -84 84z" />
    <glyph glyph-name="exclamdown" unicode="&#xa1;" horiz-adv-x="235" 
d="M165 210l35 -386h-164l35 386h94zM33 348c0 47 38 84 85 84s84 -37 84 -84s-37 -85 -84 -85s-85 38 -85 85z" />
    <glyph glyph-name="f" unicode="f" horiz-adv-x="350" 
d="M340 309h-104v-309h-144v309h-69v111h69v12c0 112 58 179 169 179c63 0 106 -20 106 -20l-45 -104s-12 6 -36 6c-31 0 -50 -22 -50 -52v-21h104v-111z" />
    <glyph glyph-name="i" unicode="i" horiz-adv-x="242" 
d="M122 474c-46 0 -81 32 -81 78s35 79 81 79s83 -33 83 -79s-37 -78 -83 -78zM49 0v420h144v-420h-144z" />
    <glyph glyph-name="five" unicode="5" horiz-adv-x="518" 
d="M449 475h-246l-2 -92c14 1 28 2 44 2c178 0 244 -77 244 -190c0 -114 -75 -205 -250 -205c-141 0 -212 82 -212 82l73 105s59 -55 136 -55c67 0 96 29 96 69c0 41 -31 76 -131 76c-74 0 -127 -17 -127 -17l-12 7l9 343h378v-125z" />
    <glyph glyph-name="l" unicode="l" horiz-adv-x="242" 
d="M49 0v605h144v-605h-144z" />
    <glyph glyph-name="florin" unicode="&#x192;" horiz-adv-x="570" 
d="M182 156l32 153h-57v111h80l3 12c24 112 93 173 204 173c70 0 115 -23 115 -23l-57 -119s-25 14 -60 14c-36 0 -53 -17 -58 -44l-3 -13h114v-111h-136l-35 -173c-21 -102 -67 -146 -170 -146c-70 0 -113 29 -113 29l45 113s22 -14 53 -14c26 0 37 11 43 38z" />
    <glyph glyph-name="four" unicode="4" horiz-adv-x="583" 
d="M20 124v107l307 369h139v-352h87v-124h-87v-124h-145v124h-301zM193 253v-5h128v159l-105 -130c-13 -16 -23 -24 -23 -24z" />
    <glyph glyph-name="fraction" unicode="&#x2044;" horiz-adv-x="567" 
d="M102 0h-114l479 600h112z" />
    <glyph glyph-name="g" unicode="g" horiz-adv-x="478" 
d="M458 314h-51v-2s8 -9 8 -39c0 -71 -59 -133 -186 -133c-21 0 -40 2 -58 5c-15 -9 -18 -15 -18 -25c0 -13 7 -23 84 -26c167 -7 223 -41 223 -128c0 -77 -73 -146 -227 -146c-155 0 -215 43 -215 106c0 33 15 65 59 91c-34 20 -48 47 -48 83c0 28 18 57 61 82
c-31 24 -48 58 -48 98c0 89 74 148 187 148c25 0 48 -3 68 -8h161v-106zM237 -15c-21 1 -40 2 -57 4c-11 -8 -25 -24 -25 -44c0 -23 21 -38 78 -38c59 0 85 15 85 38c0 22 -10 38 -81 40zM229 339c-35 0 -55 -25 -55 -56s20 -56 55 -56c37 0 57 25 57 56s-20 56 -57 56z" />
    <glyph glyph-name="germandbls" unicode="&#xdf;" horiz-adv-x="499" 
d="M238 235v102c58 12 73 42 73 78c0 40 -20 64 -59 64c-37 0 -59 -28 -59 -68v-411h-144v404c0 120 73 196 204 196c122 0 205 -84 205 -179c0 -58 -25 -101 -64 -122c46 -21 76 -67 76 -132c0 -101 -73 -171 -176 -171c-54 0 -57 4 -57 4v91h23c51 0 79 28 79 73
c0 44 -28 71 -78 71h-23z" />
    <glyph glyph-name="greater" unicode="&#x3e;" horiz-adv-x="366" 
d="M332 358v-116l-272 -155v156l162 56l-162 54v157z" />
    <glyph glyph-name="greaterequal" unicode="&#x2265;" horiz-adv-x="394" 
d="M147 187l-83 86l131 118l-132 123l83 86l204 -196v-24zM38 35v116h314v-116h-314z" />
    <glyph glyph-name="guillemotleft" unicode="&#xab;" horiz-adv-x="515" 
d="M27 197v21l130 190h119v-9l-125 -186v-9l125 -187v-9h-119zM239 197v21l130 190h119v-9l-125 -186v-9l125 -187v-9h-119z" />
    <glyph glyph-name="guillemotright" unicode="&#xbb;" horiz-adv-x="515" 
d="M276 218v-21l-130 -189h-119v9l125 187v9l-125 186v9h119zM488 218v-21l-130 -189h-119v9l125 187v9l-125 186v9h119z" />
    <glyph glyph-name="guilsinglleft" unicode="&#x2039;" horiz-adv-x="303" 
d="M27 197v21l130 190h119v-9l-125 -186v-9l125 -187v-9h-119z" />
    <glyph glyph-name="guilsinglright" unicode="&#x203a;" horiz-adv-x="303" 
d="M276 218v-21l-130 -189h-119v9l125 187v9l-125 186v9h119z" />
    <glyph glyph-name="h" unicode="h" horiz-adv-x="517" 
d="M49 0v605h146v-223h4c18 26 54 49 110 49c99 0 165 -70 165 -183v-247h-144v235c0 38 -30 68 -68 68c-36 0 -65 -27 -67 -63v-241h-146z" />
    <glyph glyph-name="hungarumlaut" unicode="&#x2dd;" horiz-adv-x="395" 
d="M370 577l-79 -157h-92l28 157h143zM192 577l-79 -157h-92l28 157h143z" />
    <glyph glyph-name="hyphen" unicode="-" horiz-adv-x="372" 
d="M46 171v116h280v-116h-280z" />
    <glyph glyph-name="iacute" unicode="&#xed;" horiz-adv-x="242" 
d="M287 629l-119 -132h-92l48 145zM49 0v420h144v-420h-144z" />
    <glyph glyph-name="icircumflex" unicode="&#xee;" horiz-adv-x="242" 
d="M49 0v420h144v-420h-144zM166 497l-42 63l-42 -63h-95l83 142h110l82 -142h-96z" />
    <glyph glyph-name="idieresis" unicode="&#xef;" horiz-adv-x="242" 
d="M-32 563c0 36 32 68 66 68c36 0 68 -32 68 -68c0 -35 -32 -67 -68 -67c-34 0 -66 32 -66 67zM151 563c0 36 32 68 66 68c36 0 67 -32 67 -68c0 -35 -31 -67 -67 -67c-34 0 -66 32 -66 67zM49 0v420h144v-420h-144z" />
    <glyph glyph-name="igrave" unicode="&#xec;" horiz-adv-x="242" 
d="M49 0v420h144v-420h-144zM67 497l-96 136l159 24l33 -160h-96z" />
    <glyph glyph-name="infinity" unicode="&#x221e;" horiz-adv-x="762" 
d="M209 111c-101 0 -173 81 -173 173c0 91 72 174 173 174c72 0 126 -46 173 -97c46 51 99 97 171 97c89 0 173 -70 173 -174c0 -90 -70 -173 -173 -173c-73 0 -127 45 -174 96c-45 -51 -98 -96 -170 -96zM544 347c-36 0 -66 -26 -97 -60c33 -37 63 -66 97 -66
c38 0 63 30 63 63c0 34 -27 63 -63 63zM218 221c35 0 66 26 97 61c-33 37 -63 65 -97 65c-39 0 -63 -34 -63 -63c0 -31 24 -63 63 -63z" />
    <glyph glyph-name="integral" unicode="&#x222b;" horiz-adv-x="350" 
d="M103 43v466c0 80 42 140 137 140c60 0 95 -24 95 -24l-36 -107s-14 6 -28 6c-15 0 -23 -9 -23 -32v-466c0 -80 -42 -140 -137 -140c-60 0 -95 24 -95 24l36 107s14 -6 28 -6c15 0 23 9 23 32z" />
    <glyph glyph-name="j" unicode="j" horiz-adv-x="243" 
d="M-6 -156v119h25c21 0 30 13 30 31v426h145v-434c0 -85 -52 -142 -137 -142h-63zM121 474c-46 0 -81 32 -81 78s35 79 81 79s83 -33 83 -79s-37 -78 -83 -78z" />
    <glyph glyph-name="k" unicode="k" horiz-adv-x="481" 
d="M301 420h170l-137 -183l145 -237h-173l-86 142l-27 -35v-107h-144v605h144v-340z" />
    <glyph glyph-name="less" unicode="&#x3c;" horiz-adv-x="366" 
d="M34 242v116l272 152v-157l-162 -54l162 -56v-156z" />
    <glyph glyph-name="lessequal" unicode="&#x2264;" horiz-adv-x="394" 
d="M330 273l-83 -86l-203 193v24l204 196l83 -86l-132 -123zM356 151v-116h-314v116h314z" />
    <glyph glyph-name="logicalnot" unicode="&#xac;" horiz-adv-x="564" 
d="M38 230v116h472v-346h-118v230h-354z" />
    <glyph glyph-name="lozenge" unicode="&#x25ca;" horiz-adv-x="521" 
d="M311 600l181 -300l-181 -300h-101l-180 300l180 300h101zM189 300l62 -114h19l62 114l-62 114h-19z" />
    <glyph glyph-name="lslash" unicode="&#x142;" horiz-adv-x="258" 
d="M14 209v77l37 23v296h144v-207l57 35v-77l-57 -35v-321h-144v232z" />
    <glyph glyph-name="m" unicode="m" horiz-adv-x="796" 
d="M193 236v-236h-144v420h87l23 -57h7c27 41 69 67 132 67c65 0 116 -25 146 -70h5c27 43 65 71 130 71c107 0 173 -71 173 -184v-247h-144v236c0 38 -24 68 -66 68c-41 0 -67 -25 -69 -61v-243h-144v236c0 38 -25 68 -67 68c-43 0 -69 -27 -69 -68z" />
    <glyph glyph-name="macron" unicode="&#xaf;" horiz-adv-x="526" 
d="M121 668v85h295v-85h-295z" />
    <glyph glyph-name="minus" unicode="&#x2212;" horiz-adv-x="536" 
d="M51 240v116h434v-116h-434z" />
    <glyph glyph-name="mu" unicode="&#xb5;" horiz-adv-x="524" 
d="M329 180v240h144v-420h-98l-24 56h-6c-26 -38 -61 -66 -121 -66c-11 0 -21 1 -31 2l2 -120h-145v548h144v-237c0 -41 23 -72 65 -72c44 0 70 34 70 69z" />
    <glyph glyph-name="u" unicode="u" horiz-adv-x="516" 
d="M323 180v240h144v-420h-98l-24 56h-6c-26 -38 -61 -66 -121 -66c-107 0 -174 70 -174 183v247h144v-237c0 -41 23 -72 65 -72c44 0 70 34 70 69z" />
    <glyph glyph-name="multiply" unicode="&#xd7;" horiz-adv-x="514" 
d="M120 85l-81 81l137 137l-137 137l81 81l137 -137l137 137l81 -81l-137 -137l137 -137l-81 -81l-137 137z" />
    <glyph glyph-name="n" unicode="n" horiz-adv-x="517" 
d="M49 0v420h87l23 -57h7c34 48 68 68 132 68c107 0 175 -71 175 -184v-247h-144v236c0 38 -26 68 -68 68c-39 0 -66 -27 -68 -63v-241h-144z" />
    <glyph glyph-name="nine" unicode="9" horiz-adv-x="567" 
d="M268 125c59 0 94 33 94 101v20c-28 -24 -65 -37 -110 -37c-129 0 -219 64 -219 187c0 129 107 209 239 209c137 0 259 -80 259 -289c0 -194 -93 -328 -262 -328c-141 0 -204 70 -204 70l78 117c43 -37 68 -50 125 -50zM276 321c49 0 84 32 86 73v3c0 45 -31 78 -86 78
c-54 0 -86 -33 -86 -77c0 -42 32 -77 86 -77z" />
    <glyph glyph-name="notequal" unicode="&#x2260;" horiz-adv-x="500" 
d="M45 322v116h205l42 109l95 -33l-29 -76h97v-116h-142l-28 -74h170v-116h-214l-41 -108l-95 33l28 75h-88v116h133l28 74h-161z" />
    <glyph glyph-name="ntilde" unicode="&#xf1;" horiz-adv-x="517" 
d="M49 0v420h87l23 -57h7c34 48 68 68 132 68c107 0 175 -71 175 -184v-247h-144v236c0 38 -26 68 -68 68c-39 0 -66 -27 -68 -63v-241h-144zM329 502c-60 0 -90 36 -123 36c-17 0 -24 -10 -28 -25l-4 -16l-101 9l6 37c10 62 46 102 108 102c60 0 90 -36 123 -36
c17 0 24 10 28 25l4 16l101 -9l-6 -37c-10 -62 -46 -102 -108 -102z" />
    <glyph glyph-name="numbersign" unicode="#" horiz-adv-x="672" 
d="M554 583l-32 -143h121l-19 -82h-120l-30 -132h122l-19 -82h-121l-32 -144h-88l32 144h-133l-32 -144h-88l32 144h-118l18 82h118l30 132h-119l18 82h119l32 143h88l-32 -143h133l32 143h88zM283 358l-30 -132h133l30 132h-133z" />
    <glyph glyph-name="o" unicode="o" horiz-adv-x="496" 
d="M471 208c0 -132 -101 -218 -223 -218c-123 0 -223 86 -223 218c0 134 100 222 223 222c122 0 223 -88 223 -222zM248 103c50 0 82 42 82 107c0 64 -32 107 -82 107c-51 0 -83 -43 -83 -107c0 -65 32 -107 83 -107z" />
    <glyph glyph-name="oacute" unicode="&#xf3;" horiz-adv-x="496" 
d="M471 208c0 -132 -101 -218 -223 -218c-123 0 -223 86 -223 218c0 134 100 222 223 222c122 0 223 -88 223 -222zM248 103c50 0 82 42 82 107c0 64 -32 107 -82 107c-51 0 -83 -43 -83 -107c0 -65 32 -107 83 -107zM411 629l-119 -132h-92l48 145z" />
    <glyph glyph-name="ocircumflex" unicode="&#xf4;" horiz-adv-x="496" 
d="M471 208c0 -132 -101 -218 -223 -218c-123 0 -223 86 -223 218c0 134 100 222 223 222c122 0 223 -88 223 -222zM248 103c50 0 82 42 82 107c0 64 -32 107 -82 107c-51 0 -83 -43 -83 -107c0 -65 32 -107 83 -107zM292 497l-42 63l-42 -63h-95l83 142h110l82 -142h-96z
" />
    <glyph glyph-name="odieresis" unicode="&#xf6;" horiz-adv-x="496" 
d="M471 208c0 -132 -101 -218 -223 -218c-123 0 -223 86 -223 218c0 134 100 222 223 222c122 0 223 -88 223 -222zM248 103c50 0 82 42 82 107c0 64 -32 107 -82 107c-51 0 -83 -43 -83 -107c0 -65 32 -107 83 -107zM92 564c0 36 32 68 66 68c36 0 68 -32 68 -68
c0 -35 -32 -67 -68 -67c-34 0 -66 32 -66 67zM275 564c0 36 32 68 66 68c36 0 67 -32 67 -68c0 -35 -31 -67 -67 -67c-34 0 -66 32 -66 67z" />
    <glyph glyph-name="oe" unicode="&#x153;" horiz-adv-x="817" 
d="M725 132l49 -93s-53 -52 -162 -52c-84 0 -148 32 -187 84c-41 -52 -106 -81 -177 -81c-123 0 -223 86 -223 218c0 134 100 222 223 222c71 0 135 -30 176 -82c38 50 98 82 171 82c123 0 200 -79 200 -209c0 -15 -1 -40 -1 -40h-274c8 -57 42 -81 102 -81
c61 0 103 32 103 32zM248 103c50 0 82 42 82 107c0 64 -32 107 -82 107c-51 0 -83 -43 -83 -107c0 -65 32 -107 83 -107zM591 326c-34 0 -60 -22 -69 -67h135c-2 40 -25 67 -66 67z" />
    <glyph glyph-name="ogonek" unicode="&#x2db;" horiz-adv-x="200" 
d="M157 -57l37 -48s-26 -37 -84 -37c-59 0 -92 34 -92 81c0 44 30 78 99 100l13 -39c-22 -14 -33 -30 -33 -45s10 -25 28 -25c12 0 23 6 32 13z" />
    <glyph glyph-name="ograve" unicode="&#xf2;" horiz-adv-x="496" 
d="M471 208c0 -132 -101 -218 -223 -218c-123 0 -223 86 -223 218c0 134 100 222 223 222c122 0 223 -88 223 -222zM248 103c50 0 82 42 82 107c0 64 -32 107 -82 107c-51 0 -83 -43 -83 -107c0 -65 32 -107 83 -107zM196 497l-96 136l159 24l33 -160h-96z" />
    <glyph glyph-name="one" unicode="1" horiz-adv-x="342" 
d="M15 475v125h267v-600h-145v475h-122z" />
    <glyph glyph-name="onehalf" unicode="&#xbd;" horiz-adv-x="714" 
d="M140 0h-112l478 600h113zM434 70v-70h244v81h-102l58 51c27 23 38 53 38 90c0 59 -45 113 -131 113c-77 0 -119 -47 -119 -47l52 -75c26 22 39 31 62 31c22 0 36 -14 36 -32c0 -15 -7 -26 -22 -39zM53 518v82h155v-326h-93v244h-62z" />
    <glyph glyph-name="onequarter" unicode="&#xbc;" horiz-adv-x="663" 
d="M141 -1l-112 1l479 600h112zM320 67v60l180 199h71v-183h55v-76h-55v-67h-89v67h-162zM49 518v82h155v-326h-93v244h-62zM429 142v-1l24 2h29v64h-1l-36 -48c-6 -9 -16 -17 -16 -17z" />
    <glyph glyph-name="onesuperior" unicode="&#xb9;" horiz-adv-x="225" 
d="M19 586v82h155v-326h-93v244h-62z" />
    <glyph glyph-name="ordfeminine" unicode="&#xaa;" horiz-adv-x="386" 
d="M25 370c0 68 57 110 145 110c41 0 62 -9 74 -17v5c0 44 -25 65 -74 65c-31 0 -65 -9 -85 -20l-28 74s55 27 126 27c110 0 156 -53 156 -148v-192h-71l-14 34h-6c-11 -16 -39 -42 -103 -42c-66 0 -120 42 -120 104zM123 377c0 -24 19 -45 58 -45c35 0 60 23 63 46v8
c-3 24 -28 37 -62 37c-40 0 -59 -21 -59 -46z" />
    <glyph glyph-name="ordmasculine" unicode="&#xba;" horiz-adv-x="382" 
d="M191 613c92 0 164 -68 164 -175c0 -102 -72 -169 -164 -169c-93 0 -165 67 -165 169c0 107 72 175 165 175zM191 531c-44 0 -69 -37 -69 -91c0 -53 25 -89 69 -89s68 36 68 89c0 54 -24 91 -68 91z" />
    <glyph glyph-name="oslash" unicode="&#xf8;" horiz-adv-x="496" 
d="M471 208c0 -132 -101 -218 -223 -218c-47 0 -91 12 -127 35l-24 -25h-91l66 69c-30 36 -47 83 -47 139c0 134 100 222 223 222c45 0 87 -12 122 -34l24 24h92l-65 -68c31 -37 50 -86 50 -144zM248 103c50 0 82 42 82 107c0 16 -2 30 -6 43l-121 -137c13 -9 28 -13 45 -13
zM165 210c0 -15 1 -29 4 -41l120 136c-12 8 -26 12 -41 12c-51 0 -83 -43 -83 -107z" />
    <glyph glyph-name="otilde" unicode="&#xf5;" horiz-adv-x="496" 
d="M471 208c0 -132 -101 -218 -223 -218c-123 0 -223 86 -223 218c0 134 100 222 223 222c122 0 223 -88 223 -222zM248 103c50 0 82 42 82 107c0 64 -32 107 -82 107c-51 0 -83 -43 -83 -107c0 -65 32 -107 83 -107zM319 503c-60 0 -90 36 -123 36c-17 0 -24 -10 -28 -25
l-4 -16l-101 9l6 37c10 62 46 102 108 102c60 0 90 -36 123 -36c17 0 24 10 28 25l4 16l101 -9l-6 -37c-10 -62 -46 -102 -108 -102z" />
    <glyph glyph-name="p" unicode="p" horiz-adv-x="519" 
d="M199 38h-6v-194h-144v576h91l22 -57h6s33 67 131 67c111 0 194 -84 194 -219c0 -131 -81 -221 -189 -221c-82 0 -105 48 -105 48zM186 209c0 -62 31 -101 81 -101c49 0 81 41 81 101s-32 103 -81 103c-50 0 -81 -41 -81 -103z" />
    <glyph glyph-name="paragraph" unicode="&#xb6;" horiz-adv-x="559" 
d="M352 -82v204h-53c-155 0 -271 87 -271 244c0 155 117 235 271 235h198v-683h-145z" />
    <glyph glyph-name="parenleft" unicode="(" horiz-adv-x="301" 
d="M177 287c0 -230 109 -324 109 -324l-95 -100s-164 133 -164 424c0 292 164 425 164 425l95 -100s-109 -94 -109 -325z" />
    <glyph glyph-name="parenright" unicode=")" horiz-adv-x="302" 
d="M124 287c0 231 -109 325 -109 325l95 100s164 -133 164 -425c0 -291 -164 -424 -164 -424l-95 100s109 94 109 324z" />
    <glyph glyph-name="percent" unicode="%" horiz-adv-x="681" 
d="M173 613c89 0 141 -69 141 -147c0 -77 -52 -147 -141 -147c-88 0 -141 70 -141 147c0 78 53 147 141 147zM173 537c-31 0 -47 -22 -47 -71c0 -48 16 -70 47 -70s47 22 47 70c0 49 -16 71 -47 71zM509 286c89 0 141 -69 141 -147c0 -77 -52 -147 -141 -147
c-88 0 -141 70 -141 147c0 78 53 147 141 147zM509 210c-31 0 -47 -22 -47 -71c0 -48 16 -70 47 -70s47 22 47 70c0 49 -16 71 -47 71zM522 600h112l-477 -600h-114z" />
    <glyph glyph-name="period" unicode="." horiz-adv-x="227" 
d="M113 -10c-45 0 -80 35 -80 80s35 81 80 81s81 -36 81 -81s-36 -80 -81 -80z" />
    <glyph glyph-name="periodcentered" unicode="&#xb7;" horiz-adv-x="233" 
d="M32 359c0 47 37 85 84 85s85 -38 85 -85s-38 -84 -85 -84s-84 37 -84 84z" />
    <glyph glyph-name="perthousand" unicode="&#x2030;" horiz-adv-x="999" 
d="M173 613c89 0 141 -69 141 -147c0 -77 -52 -147 -141 -147c-88 0 -141 70 -141 147c0 78 53 147 141 147zM173 396c31 0 47 22 47 70c0 49 -16 71 -47 71s-47 -22 -47 -71c0 -48 16 -70 47 -70zM522 600h112l-477 -600h-114zM509 286c89 0 141 -69 141 -147
c0 -77 -52 -147 -141 -147c-88 0 -141 70 -141 147c0 78 53 147 141 147zM509 210c-31 0 -47 -22 -47 -71c0 -48 16 -70 47 -70s47 22 47 70c0 49 -16 71 -47 71zM830 210c-31 0 -47 -22 -47 -71c0 -48 16 -70 47 -70s47 22 47 70c0 49 -16 71 -47 71zM830 286
c89 0 141 -69 141 -147c0 -77 -52 -147 -141 -147c-88 0 -141 70 -141 147c0 78 53 147 141 147z" />
    <glyph glyph-name="pi" unicode="&#x3c0;" horiz-adv-x="590" 
d="M23 420h544v-113h-69v-307h-144v307h-118v-307h-144v307h-69v113z" />
    <glyph glyph-name="plus" unicode="+" horiz-adv-x="498" 
d="M307 515v-163h159v-116h-159v-155h-116v155h-159v116h159v163h116z" />
    <glyph glyph-name="plusminus" unicode="&#xb1;" horiz-adv-x="517" 
d="M319 192h-118v141h-152v116h152v149h118v-149h149v-116h-149v-141zM468 133v-116h-419v116h419z" />
    <glyph glyph-name="product" unicode="&#x220f;" horiz-adv-x="647" 
d="M591 600v-600h-145v475h-245v-475h-145v600h535z" />
    <glyph glyph-name="q" unicode="q" horiz-adv-x="518" 
d="M470 420v-576h-144v196h-6s-23 -50 -104 -50c-109 0 -190 90 -190 221c0 135 83 219 195 219c99 0 130 -70 130 -70h5l23 60h91zM334 209c0 62 -31 103 -82 103c-49 0 -81 -43 -81 -103s32 -101 81 -101c51 0 82 39 82 101z" />
    <glyph glyph-name="question" unicode="?" horiz-adv-x="455" 
d="M102 438l-76 115s56 61 179 61c126 0 217 -64 217 -170c0 -141 -137 -150 -148 -218l-3 -19h-117v30c0 100 100 103 100 179c0 35 -25 55 -68 55c-45 0 -84 -33 -84 -33zM132 73c0 45 36 80 81 80s80 -35 80 -80s-35 -81 -80 -81s-81 36 -81 81z" />
    <glyph glyph-name="questiondown" unicode="&#xbf;" horiz-adv-x="447" 
d="M349 -14l76 -115s-56 -61 -179 -61c-126 0 -217 64 -217 170c0 141 137 150 148 218l3 19h117v-30c0 -100 -100 -103 -100 -179c0 -35 25 -55 68 -55c45 0 84 33 84 33zM319 351c0 -45 -36 -80 -81 -80s-80 35 -80 80s35 81 80 81s81 -36 81 -81z" />
    <glyph glyph-name="quotedbl" unicode="&#x22;" horiz-adv-x="352" 
d="M173 684l-49 -209h-84l12 209h121zM334 684l-49 -209h-84l12 209h121z" />
    <glyph glyph-name="quotedblbase" unicode="&#x201e;" horiz-adv-x="486" 
d="M29 -49c36 8 56 20 63 42c-34 8 -59 39 -59 77c0 45 35 81 80 81s81 -36 81 -81v-5c0 -83 -46 -168 -144 -188zM285 -49c36 8 56 20 63 42c-34 8 -59 39 -59 77c0 45 35 81 80 81s81 -36 81 -81v-5c0 -83 -46 -168 -144 -188z" />
    <glyph glyph-name="quotedblleft" unicode="&#x201c;" horiz-adv-x="428" 
d="M394 526c-36 -8 -56 -20 -64 -42c35 -9 60 -39 60 -77c0 -45 -35 -81 -80 -81s-81 36 -81 81v5c0 83 46 168 144 188zM30 407v5c0 83 46 168 144 188l21 -74c-36 -8 -56 -20 -64 -42c35 -9 60 -39 60 -77c0 -45 -35 -81 -80 -81s-81 36 -81 81z" />
    <glyph glyph-name="quotedblright" unicode="&#x201d;" horiz-adv-x="414" 
d="M204 519v-5c0 -83 -46 -168 -144 -188l-21 74c36 7 56 19 63 41c-34 9 -59 40 -59 78c0 45 35 81 80 81s81 -36 81 -81zM224 400c36 7 56 19 63 41c-34 9 -59 40 -59 78c0 45 35 81 80 81s81 -36 81 -81v-5c0 -83 -46 -168 -144 -188z" />
    <glyph glyph-name="quoteleft" unicode="&#x2018;" horiz-adv-x="229" 
d="M195 526c-36 -8 -56 -20 -64 -42c35 -9 60 -39 60 -77c0 -45 -35 -81 -80 -81s-81 36 -81 81v5c0 83 46 168 144 188z" />
    <glyph glyph-name="quoteright" unicode="&#x2019;" horiz-adv-x="229" 
d="M39 400c36 7 56 19 63 41c-34 9 -59 40 -59 78c0 45 35 81 80 81s81 -36 81 -81v-5c0 -83 -46 -168 -144 -188z" />
    <glyph glyph-name="quotesinglbase" unicode="&#x201a;" horiz-adv-x="230" 
d="M29 -49c36 8 56 20 63 42c-34 8 -59 39 -59 77c0 45 35 81 80 81s81 -36 81 -81v-5c0 -83 -46 -168 -144 -188z" />
    <glyph glyph-name="quotesingle" unicode="'" horiz-adv-x="192" 
d="M173 684l-48 -209h-85l12 209h121z" />
    <glyph glyph-name="r" unicode="r" horiz-adv-x="316" 
d="M303 420v-122h-22c-53 0 -88 -35 -88 -95v-203h-144v420h87l23 -57h6c24 39 60 57 116 57h22z" />
    <glyph glyph-name="radical" unicode="&#x221a;" horiz-adv-x="638" 
d="M654 600l-415 -792h-26l-216 399h162l19 -45l38 -97h21l38 97l214 438h165z" />
    <glyph glyph-name="registered" unicode="&#xae;" horiz-adv-x="528" 
d="M490 380c0 -127 -85 -233 -227 -233c-141 0 -225 107 -225 233c0 127 84 233 225 233c142 0 227 -106 227 -233zM445 380c0 108 -72 190 -182 190c-108 0 -180 -78 -180 -190c0 -107 72 -190 180 -190c110 0 182 82 182 190zM172 485h100c53 0 89 -30 89 -76
c0 -27 -12 -48 -31 -61v-1l35 -52v-12h-64l-33 49h-35v-49h-61v202zM270 430h-37v-45h37c17 0 27 8 27 22c0 15 -10 23 -27 23z" />
    <glyph glyph-name="s" unicode="s" horiz-adv-x="431" 
d="M26 34l42 98s67 -41 133 -41c37 0 49 11 49 25c0 55 -218 18 -218 182c0 75 60 132 174 132c127 0 191 -38 191 -38l-41 -103s-59 38 -132 38c-28 0 -44 -8 -44 -24c0 -53 224 -13 224 -179c0 -76 -56 -134 -192 -134c-130 0 -186 44 -186 44z" />
    <glyph glyph-name="scaron" unicode="&#x161;" horiz-adv-x="431" 
d="M26 34l42 98s67 -41 133 -41c37 0 49 11 49 25c0 55 -218 18 -218 182c0 75 60 132 174 132c127 0 191 -38 191 -38l-41 -103s-59 38 -132 38c-28 0 -44 -8 -44 -24c0 -53 224 -13 224 -179c0 -76 -56 -134 -192 -134c-130 0 -186 44 -186 44zM169 606l42 -63l42 63h95
l-64 -109h-147l-64 109h96z" />
    <glyph glyph-name="section" unicode="&#xa7;" horiz-adv-x="556" 
d="M31 47l59 95s74 -44 180 -44c55 0 75 14 75 31c0 22 -21 33 -97 53c-84 22 -192 51 -192 142c0 42 24 67 34 75c-22 17 -34 40 -34 75c0 84 72 139 226 139c150 0 219 -49 219 -49l-58 -101s-68 38 -161 38c-45 0 -59 -13 -59 -27c0 -20 18 -30 74 -45
c90 -24 218 -52 218 -145c0 -48 -23 -76 -34 -86c22 -19 34 -41 34 -71c0 -77 -76 -142 -241 -142c-162 0 -243 62 -243 62zM248 342l-43 11c-2 -2 -7 -6 -7 -21c0 -29 48 -50 99 -63l65 -18c1 2 8 12 8 24c0 36 -56 50 -122 67z" />
    <glyph glyph-name="semicolon" unicode=";" horiz-adv-x="248" 
d="M39 -49c36 8 56 20 63 42c-34 8 -59 39 -59 77c0 45 35 81 80 81s81 -36 81 -81v-5c0 -83 -46 -168 -144 -188zM123 266c-45 0 -80 35 -80 80s35 81 80 81s81 -36 81 -81s-36 -80 -81 -80z" />
    <glyph glyph-name="seven" unicode="7" horiz-adv-x="488" 
d="M26 475v125h448v-104l-252 -496h-165l248 475h-279z" />
    <glyph glyph-name="six" unicode="6" horiz-adv-x="567" 
d="M206 367v-21c28 24 65 38 110 38c129 0 219 -64 219 -187c0 -129 -107 -209 -239 -209c-137 0 -259 80 -259 289c0 194 93 328 262 328c141 0 204 -70 204 -70l-78 -117c-43 37 -68 50 -125 50c-59 0 -94 -33 -94 -101zM292 272c-50 0 -85 -33 -86 -73v-3
c0 -45 31 -78 86 -78c54 0 86 33 86 77c0 42 -32 77 -86 77z" />
    <glyph glyph-name="slash" unicode="/" horiz-adv-x="628" 
d="M161 -112h-141l447 895h141z" />
    <glyph glyph-name="space" unicode=" " horiz-adv-x="198" 
 />
    <glyph glyph-name="sterling" unicode="&#xa3;" horiz-adv-x="521" 
d="M478 125v-125h-433v125c3 1 62 31 62 81c0 10 -2 22 -4 37h-58v96h39c-5 27 -9 54 -9 78c0 106 85 190 232 190c116 0 183 -64 183 -64l-86 -120s-38 43 -91 43c-49 0 -76 -26 -76 -70c0 -16 2 -36 6 -57h161v-96h-146c2 -13 3 -26 3 -38c0 -31 -8 -58 -19 -80h236z" />
    <glyph glyph-name="summation" unicode="&#x2211;" horiz-adv-x="460" 
d="M48 600h370v-125h-188l112 -140v-74l-107 -136h183v-125h-370v125l141 165v14l-141 171v125z" />
    <glyph glyph-name="t" unicode="t" horiz-adv-x="352" 
d="M14 420h69v128h144v-128h94v-111h-94v-159c0 -23 12 -37 38 -37c21 0 37 12 37 12l39 -98c-26 -20 -72 -37 -116 -37c-103 0 -142 66 -142 153v166h-69v111z" />
    <glyph glyph-name="thorn" unicode="&#xfe;" horiz-adv-x="519" 
d="M199 47h-6v-203h-144v756h144v-222h5s29 52 105 52c112 0 190 -84 190 -219c0 -131 -81 -221 -190 -221c-81 0 -104 57 -104 57zM186 209c0 -62 31 -101 81 -101c49 0 81 41 81 101s-32 103 -81 103c-50 0 -81 -41 -81 -103z" />
    <glyph glyph-name="three" unicode="3" horiz-adv-x="522" 
d="M230 260h-77v87l119 128h-225v125h416v-103l-124 -134c98 -21 146 -82 146 -177c0 -105 -75 -196 -250 -196c-145 0 -212 82 -212 82l74 106s58 -56 135 -56c67 0 96 28 96 69c0 42 -29 69 -98 69z" />
    <glyph glyph-name="threequarters" unicode="&#xbe;" horiz-adv-x="700" 
d="M190 0h-114l479 600h112zM40 518v82h232v-61l-52 -65c41 -15 65 -46 65 -89c0 -68 -45 -119 -138 -119c-80 0 -116 43 -116 43l49 68s21 -23 63 -23c32 0 44 13 44 30s-11 30 -40 30h-47v42l50 62h-110zM367 60v60l180 199h71v-183h48v-76h-48v-60h-90v60h-161zM476 135
v-1l24 2h28v64h-1l-35 -48c-6 -9 -16 -17 -16 -17z" />
    <glyph glyph-name="threesuperior" unicode="&#xb3;" horiz-adv-x="315" 
d="M39 586v82h232v-61l-52 -65c41 -15 65 -46 65 -89c0 -68 -45 -119 -138 -119c-80 0 -116 43 -116 43l49 68s21 -23 63 -23c32 0 44 13 44 30s-11 30 -40 30h-47v42l50 62h-110z" />
    <glyph glyph-name="trademark" unicode="&#x2122;" horiz-adv-x="738" 
d="M435 281h-90v319h60l106 -137l107 137h60v-319h-90v145l-57 -74h-39l-57 74v-145zM296 600v-79h-87v-240h-90v240h-87v79h264z" />
    <glyph glyph-name="two" unicode="2" horiz-adv-x="530" 
d="M42 0v105l223 211c32 30 42 50 42 84c0 38 -30 71 -82 71c-49 0 -83 -22 -123 -54l-76 116s80 80 219 80c153 0 238 -91 238 -193c0 -67 -19 -119 -70 -166l-139 -129h213v-125h-445z" />
    <glyph glyph-name="twosuperior" unicode="&#xb2;" horiz-adv-x="331" 
d="M45 342v70l116 103c15 13 22 24 22 39c0 18 -14 32 -36 32c-23 0 -36 -9 -62 -31l-52 75s42 47 119 47c86 0 131 -54 131 -113c0 -37 -11 -67 -38 -90l-58 -51h102v-81h-244z" />
    <glyph glyph-name="uacute" unicode="&#xfa;" horiz-adv-x="516" 
d="M412 629l-119 -132h-92l48 145zM323 180v240h144v-420h-98l-24 56h-6c-26 -38 -61 -66 -121 -66c-107 0 -174 70 -174 183v247h144v-237c0 -41 23 -72 65 -72c44 0 70 34 70 69z" />
    <glyph glyph-name="ucircumflex" unicode="&#xfb;" horiz-adv-x="516" 
d="M290 497l-42 63l-42 -63h-95l83 142h110l82 -142h-96zM323 180v240h144v-420h-98l-24 56h-6c-26 -38 -61 -66 -121 -66c-107 0 -174 70 -174 183v247h144v-237c0 -41 23 -72 65 -72c44 0 70 34 70 69z" />
    <glyph glyph-name="udieresis" unicode="&#xfc;" horiz-adv-x="516" 
d="M91 565c0 36 32 68 66 68c36 0 68 -32 68 -68c0 -35 -32 -67 -68 -67c-34 0 -66 32 -66 67zM274 565c0 36 32 68 66 68c36 0 67 -32 67 -68c0 -35 -31 -67 -67 -67c-34 0 -66 32 -66 67zM323 180v240h144v-420h-98l-24 56h-6c-26 -38 -61 -66 -121 -66
c-107 0 -174 70 -174 183v247h144v-237c0 -41 23 -72 65 -72c44 0 70 34 70 69z" />
    <glyph glyph-name="ugrave" unicode="&#xf9;" horiz-adv-x="516" 
d="M323 180v240h144v-420h-98l-24 56h-6c-26 -38 -61 -66 -121 -66c-107 0 -174 70 -174 183v247h144v-237c0 -41 23 -72 65 -72c44 0 70 34 70 69zM198 497l-96 136l159 24l33 -160h-96z" />
    <glyph glyph-name="underscore" unicode="_" horiz-adv-x="513" 
d="M35 -156v116h442v-116h-442z" />
    <glyph glyph-name="uni00A0" unicode="&#xa0;" horiz-adv-x="198" 
 />
    <glyph glyph-name="v" unicode="v" horiz-adv-x="463" 
d="M469 420l-186 -420h-103l-186 420h157l69 -213c5 -12 8 -24 8 -37h7c0 13 4 25 8 37l69 213h157z" />
    <glyph glyph-name="w" unicode="w" horiz-adv-x="674" 
d="M676 420l-150 -420h-122l-55 187c-5 16 -9 38 -9 56h-6c0 -18 -5 -40 -10 -56l-55 -187h-121l-150 420h152l53 -213c3 -12 7 -24 7 -37h5c0 13 5 30 8 42l52 208h124l52 -208c3 -13 8 -29 8 -42h5c0 13 3 24 7 37l53 213h152z" />
    <glyph glyph-name="x" unicode="x" horiz-adv-x="468" 
d="M12 0l129 212l-127 208h161l60 -120h3l60 120h161l-138 -208l140 -212h-161l-62 126h-3l-63 -126h-160z" />
    <glyph glyph-name="y" unicode="y" horiz-adv-x="457" 
d="M461 420l-242 -576h-149l94 198l-168 378h157l70 -213c4 -12 8 -24 8 -37h7c0 13 3 25 7 37l69 213h147z" />
    <glyph glyph-name="yacute" unicode="&#xfd;" horiz-adv-x="457" 
d="M461 420l-242 -576h-149l94 198l-168 378h157l70 -213c4 -12 8 -24 8 -37h7c0 13 3 25 7 37l69 213h147zM389 629l-119 -132h-92l48 145z" />
    <glyph glyph-name="ydieresis" unicode="&#xff;" horiz-adv-x="457" 
d="M461 420l-242 -576h-149l94 198l-168 378h157l70 -213c4 -12 8 -24 8 -37h7c0 13 3 25 7 37l69 213h147zM69 563c0 36 32 68 66 68c36 0 68 -32 68 -68c0 -35 -32 -67 -68 -67c-34 0 -66 32 -66 67zM252 563c0 36 32 68 66 68c36 0 67 -32 67 -68c0 -35 -31 -67 -67 -67
c-34 0 -66 32 -66 67z" />
    <glyph glyph-name="yen" unicode="&#xa5;" horiz-adv-x="621" 
d="M336 418l101 182h156l-160 -279h108v-96h-158v-39h158v-96h-158v-90h-145v90h-154v96h154v39h-154v96h102l-159 279h156l101 -182l26 -61z" />
    <glyph glyph-name="z" unicode="z" horiz-adv-x="432" 
d="M399 0h-367v81l182 224h-180v115h365v-73l-178 -232h178v-115z" />
    <glyph glyph-name="zcaron" unicode="&#x17e;" horiz-adv-x="432" 
d="M399 0h-367v81l182 224h-180v115h365v-73l-178 -232h178v-115zM170 606l42 -63l42 63h95l-64 -109h-147l-64 109h96z" />
    <glyph glyph-name="zero" unicode="0" horiz-adv-x="630" 
d="M315 -13c-188 0 -279 148 -279 313s91 313 279 313c189 0 279 -148 279 -313s-90 -313 -279 -313zM315 127c86 0 129 69 129 173s-43 173 -129 173s-129 -69 -129 -173s43 -173 129 -173z" />
    </font>
</defs>
</svg>
